<?xml version="1.0" standalone="no"?>
<!DOCTYPE svg PUBLIC "-//W3C//DTD SVG 20010904//EN"
 "http://www.w3.org/TR/2001/REC-SVG-20010904/DTD/svg10.dtd">
<svg version="1.0" xmlns="http://www.w3.org/2000/svg"
 width="300.000000pt" height="300.000000pt" viewBox="0 0 300.000000 300.000000"
 preserveAspectRatio="xMidYMid meet">
<metadata>
Created by potrace 1.14, written by Peter Selinger 2001-2017
</metadata>
<g transform="translate(0.000000,300.000000) scale(0.100000,-0.100000)"
fill="#000000" stroke="none">
<path d="M864 2928 c-49 -23 -56 -105 -13 -144 26 -24 91 -25 116 -1 26 23 45
22 104 -9 89 -45 167 -143 185 -231 6 -29 4 -32 -32 -43 -87 -28 -218 -107
-259 -155 -5 -7 -33 -19 -61 -29 -115 -38 -213 -137 -249 -251 -12 -40 -16
-79 -14 -138 6 -139 74 -247 203 -322 26 -15 71 -52 99 -82 28 -30 80 -73 116
-97 62 -40 78 -48 155 -76 l29 -11 -35 -37 c-51 -53 -78 -113 -85 -190 -4 -42
-13 -76 -25 -91 -25 -33 -23 -77 7 -106 31 -32 66 -32 104 1 l31 26 32 -33
c49 -49 130 -81 214 -87 87 -5 133 8 185 55 32 29 41 33 58 24 60 -33 128 11
118 77 -3 18 -12 39 -21 47 -8 8 -18 41 -21 72 -9 76 -43 151 -95 206 l-41 45
74 35 c40 20 88 50 107 66 19 17 46 34 60 37 204 47 320 165 344 349 20 146
-75 320 -209 385 -23 11 -67 49 -98 84 -62 71 -185 159 -247 177 -45 14 -46
17 -24 62 43 85 135 161 227 186 42 12 45 12 70 -13 67 -67 176 0 147 90 -12
34 -51 64 -85 64 -26 0 -72 -31 -84 -57 -6 -12 -19 -23 -28 -23 -30 0 -126
-40 -163 -68 -53 -40 -106 -100 -132 -151 l-23 -46 -142 0 -142 0 -16 50 c-41
126 -142 232 -256 270 -27 9 -49 22 -49 29 0 7 -12 25 -26 40 -28 28 -71 33
-110 14z m319 -658 c74 -35 143 -103 177 -175 26 -54 30 -74 30 -144 0 -57 -6
-96 -21 -136 -27 -73 -104 -156 -177 -192 -50 -25 -68 -28 -152 -28 -85 0
-101 4 -153 30 -77 38 -132 95 -170 175 -59 122 -38 268 51 371 84 95 163 130
287 125 58 -2 93 -9 128 -26z m777 -56 c116 -34 218 -136 250 -248 19 -70 9
-179 -24 -248 -35 -74 -117 -149 -194 -178 -82 -31 -206 -25 -284 13 -68 33
-131 100 -166 175 -23 48 -27 71 -27 142 0 72 4 94 28 145 76 164 253 248 417
199z m-652 -923 c-13 -21 -38 -29 -38 -12 0 11 42 43 48 37 2 -2 -3 -13 -10
-25z m344 -4 c48 -36 98 -123 98 -170 0 -22 -4 -28 -16 -23 -9 3 -25 6 -37 6
-18 0 -19 2 -7 10 12 8 11 10 -6 10 -16 0 -23 10 -33 50 -7 28 -24 72 -37 98
-13 26 -24 48 -24 50 0 9 25 -3 62 -31z m-392 -31 c0 -3 -4 -8 -10 -11 -5 -3
-10 -1 -10 4 0 6 5 11 10 11 6 0 10 -2 10 -4z m65 -6 c-3 -5 -11 -10 -16 -10
-6 0 -7 5 -4 10 3 6 11 10 16 10 6 0 7 -4 4 -10z m27 -7 c-6 -2 -9 -10 -6 -15
4 -7 2 -8 -5 -4 -13 9 -5 26 12 25 9 0 8 -2 -1 -6z m-79 -76 c-7 -11 -9 -7
-17 28 l-6 30 14 -25 c8 -14 12 -28 9 -33z m217 23 c8 -5 11 -10 5 -10 -5 0
-17 5 -25 10 -8 5 -10 10 -5 10 6 0 17 -5 25 -10z m80 -32 c10 -6 7 -7 -10 -2
-14 3 -32 11 -40 16 -10 6 -7 7 10 2 14 -3 32 -11 40 -16z m-378 -58 c-2 -37
-8 -58 -14 -54 -12 8 2 114 15 114 1 0 0 -27 -1 -60z m438 34 c0 -2 -7 -4 -15
-4 -8 0 -15 4 -15 10 0 5 7 7 15 4 8 -4 15 -8 15 -10z m-190 3 c0 -2 -10 -12
-22 -23 l-23 -19 19 23 c18 21 26 27 26 19z m207 -29 c-3 -8 -6 -5 -6 6 -1 11
2 17 5 13 3 -3 4 -12 1 -19z m-267 -18 c8 -5 11 -10 5 -10 -5 0 -17 5 -25 10
-8 5 -10 10 -5 10 6 0 17 -5 25 -10z m71 -13 c-10 -9 -11 -8 -5 6 3 10 9 15
12 12 3 -3 0 -11 -7 -18z m63 7 c3 -8 2 -12 -4 -9 -6 3 -10 10 -10 16 0 14 7
11 14 -7z m-214 -20 c0 -2 -7 -4 -15 -4 -8 0 -15 4 -15 10 0 5 7 7 15 4 8 -4
15 -8 15 -10z m272 -19 c2 -19 0 -35 -4 -35 -4 0 -8 16 -8 35 0 19 2 35 4 35
2 0 6 -16 8 -35z m75 9 c2 -13 1 -15 -4 -4 -3 8 -11 19 -17 23 -7 6 -6 7 4 4
8 -2 16 -12 17 -23z m-390 -6 c-3 -8 -6 -5 -6 6 -1 11 2 17 5 13 3 -3 4 -12 1
-19z m446 -19 c5 -4 5 -9 -2 -13 -6 -4 -12 -22 -12 -39 l-1 -32 -7 30 c-4 17
-3 33 2 36 5 4 4 15 -2 27 -15 27 -14 43 1 17 6 -11 16 -23 21 -26z m-197 -4
c-9 -14 -20 -25 -25 -25 -19 0 -41 13 -41 23 0 7 4 7 12 -1 18 -18 33 -14 48
13 7 14 15 23 18 20 3 -2 -3 -16 -12 -30z m-158 3 c-8 -12 -20 -24 -27 -26 -7
-2 -3 7 10 22 28 32 37 34 17 4z m-108 -9 c0 -6 -4 -7 -10 -4 -5 3 -10 11 -10
16 0 6 5 7 10 4 6 -3 10 -11 10 -16z m30 -14 c11 -13 10 -14 -4 -9 -11 4 -16
1 -16 -12 0 -9 -3 -15 -6 -11 -5 5 4 47 10 47 2 0 9 -7 16 -15z m360 10 c0 -2
-9 -9 -20 -15 -12 -6 -20 -7 -20 -1 0 5 8 12 18 14 9 3 18 5 20 6 1 0 2 -1 2
-4z m-210 -44 c0 -5 -7 -11 -14 -14 -10 -4 -13 -1 -9 9 6 15 23 19 23 5z m170
-6 c11 -13 10 -14 -4 -9 -9 3 -16 10 -16 15 0 13 6 11 20 -6z m-123 -37 c-3
-8 -6 -5 -6 6 -1 11 2 17 5 13 3 -3 4 -12 1 -19z m-77 2 c0 -5 -5 -10 -11 -10
-5 0 -7 5 -4 10 3 6 8 10 11 10 2 0 4 -4 4 -10z m170 -43 c0 -5 -4 -5 -10 -2
-5 3 -10 14 -10 23 0 15 2 15 10 2 5 -8 10 -19 10 -23z m-90 13 c0 -5 -5 -10
-11 -10 -5 0 -7 5 -4 10 3 6 8 10 11 10 2 0 4 -4 4 -10z"/>
<path d="M1075 2130 c-45 -14 -105 -69 -126 -114 -84 -185 128 -370 300 -262
128 81 131 260 5 349 -44 31 -126 44 -179 27z m25 -84 c6 -8 10 -25 8 -38 -6
-42 -78 -32 -78 11 0 37 46 55 70 27z"/>
<path d="M1690 2069 c-80 -32 -129 -107 -130 -197 0 -118 87 -202 210 -202
114 0 200 87 200 202 -1 123 -86 209 -207 207 -26 0 -59 -5 -73 -10z m190 -99
c15 -28 -4 -60 -35 -60 -14 0 -29 8 -35 20 -15 28 4 60 35 60 14 0 29 -8 35
-20z"/>
<path d="M1250 781 c0 -18 9 -50 21 -72 l20 -41 -40 -62 -41 -62 0 -116 0
-115 -45 -5 c-89 -11 -124 -64 -69 -107 47 -37 170 -22 187 23 3 8 -2 80 -10
160 -18 157 -17 162 32 218 l24 27 43 -19 c72 -32 116 -34 183 -11 l60 20 39
-40 c38 -40 38 -42 32 -98 -3 -31 -9 -104 -12 -162 -7 -103 -6 -106 17 -122
50 -36 179 -12 195 35 12 40 -40 78 -107 78 -28 0 -29 2 -29 53 -1 123 -15
182 -60 242 -38 51 -40 58 -27 73 16 18 40 93 32 100 -2 3 -11 0 -18 -7 -25
-20 -110 -41 -170 -41 -70 0 -155 23 -214 57 l-43 25 0 -31z"/>
</g>
</svg>
